<?xml version="1.0" encoding="utf-8"?>
<!-- Generator: Adobe Illustrator 24.2.0, SVG Export Plug-In . SVG Version: 6.00 Build 0)  -->
<svg version="1.1" id="Layer_1" xmlns="http://www.w3.org/2000/svg" xmlns:xlink="http://www.w3.org/1999/xlink" x="0px" y="0px"
	 viewBox="0 0 380 138" style="enable-background:new 0 0 380 138;" xml:space="preserve">
<style type="text/css">
	.st0{fill:#BABABA;}
	.st1{fill:#9B8FC4;}
	.st2{fill:#9F9FB2;}
	.st3{fill:#70748F;}
	.st4{fill:#D2D1E8;}
</style>
<g>
	<g>
		<g>
			<path class="st0" d="M63,62.6l19.1-43.3h16.1V21h-1.9c-2.6,0-4.3,0.2-5.1,0.6c-0.8,0.4-1.3,1.2-1.6,2.4s-0.4,3.9-0.4,8.3V58
				c0,4.1,0.1,6.8,0.3,8.1s0.7,2.2,1.6,2.8c0.8,0.6,2.4,0.9,4.8,0.9h2.3v1.8h-25v-1.8H75c2.2,0,3.8-0.3,4.6-0.8s1.4-1.4,1.7-2.6
				c0.2-1.2,0.4-4,0.4-8.4V24.7l-20.7,47h-1.8l-20.9-47v30.7c0,4.2,0.1,7.1,0.4,8.6c0.3,1.5,1.1,2.9,2.4,4c1.3,1.1,3.2,1.8,5.6,2
				v1.8H27.8v-1.8c2.2-0.1,4.1-0.7,5.5-1.8c1.4-1.1,2.3-2.4,2.6-4c0.3-1.6,0.5-4.6,0.5-8.9V32.3c0-4.2-0.1-6.9-0.4-8.1
				c-0.2-1.2-0.8-2-1.5-2.5c-0.8-0.5-2.5-0.7-5.2-0.7h-1.4v-1.8h16L63,62.6z"/>
			<path class="st0" d="M145.6,55.4h1.9l-1.1,16.3H103v-1.8h1.1c2.6,0,4.3-0.3,5-1s1.2-1.6,1.4-2.6c0.2-1.1,0.3-3.8,0.3-8.2V32.3
				c0-4-0.1-6.6-0.3-7.9c-0.2-1.3-0.7-2.1-1.5-2.6c-0.8-0.5-2.4-0.8-5-0.8v-1.8h37.4l1.2,13.1h-1.8c-0.8-3.7-1.8-6.3-3-7.8
				c-1.2-1.5-2.6-2.5-4.3-2.9c-1.6-0.4-4.3-0.6-8-0.6h-7.3v22h5.6c2.5,0,4.3-0.2,5.4-0.7c1-0.4,1.7-1.1,2-2s0.5-2.6,0.5-5.2h1.8
				v17.9h-1.8c0-2.9-0.2-4.9-0.7-5.9c-0.5-1-1.2-1.6-2.1-1.9c-0.9-0.3-2.5-0.4-4.8-0.4h-5.8v12.4c0,6.2,0.4,9.9,1.2,11
				c0.8,1.1,2.9,1.6,6.5,1.6h3.9c2.8,0,5-0.4,6.8-1.1c1.8-0.7,3.5-2.2,5.1-4.4C143.4,62.2,144.7,59.2,145.6,55.4z"/>
			<path class="st0" d="M208.2,71.7h-14.1c-2.5-1.8-6.3-6.3-11.5-13.8c-1.6-2.4-3.4-4.6-5.1-6.8c-1.8-2.2-3-3.5-3.7-4
				s-1.7-0.7-3.1-0.7h-2.1V58c0,4.1,0.1,6.8,0.3,8.1s0.7,2.2,1.5,2.8s2.4,0.9,4.8,0.9h2.5v1.8h-25.1v-1.8h1.7c2.2,0,3.8-0.3,4.7-0.8
				c0.9-0.6,1.4-1.4,1.6-2.6c0.2-1.2,0.3-4,0.3-8.4V32.3c0-4.2-0.1-6.9-0.3-8.1c-0.2-1.2-0.7-2-1.5-2.5c-0.8-0.5-2.5-0.7-5.2-0.7
				h-0.9v-1.8l7.5-0.4c5-0.2,9-0.3,11.9-0.3c5,0,9.1,0.5,12.2,1.4c3.1,0.9,5.7,2.4,7.6,4.6c1.9,2.1,2.9,4.6,2.9,7.6
				c0,3.4-1.3,6.3-3.8,8.8c-2.5,2.4-6.2,3.9-11.1,4.5c2.2,1.1,5.7,4.9,10.6,11.4c4,5.3,7.1,8.8,9.3,10.5c2.3,1.6,4.9,2.5,8,2.6V71.7
				z M168.6,44.6c1.9-0.1,3.9-0.1,6-0.2c2.1-0.1,3.9-0.4,5.4-0.8c1.5-0.5,2.7-1.1,3.7-2s1.7-2.1,2.2-3.5c0.5-1.4,0.8-3.2,0.8-5.3
				c0-3.7-0.9-6.6-2.8-8.8c-1.8-2.2-5.9-3.3-12-3.3c-1,0-2,0.1-3.3,0.2V44.6z"/>
			<path class="st0" d="M243.3,52.3h-19.9l-1.4,3.3c-2,4.8-3,8-3,9.4c0,1.6,0.5,2.8,1.6,3.6c1.1,0.8,2.4,1.2,4.1,1.2v1.8h-15.6v-1.8
				c2.3-0.4,4-1.2,5.2-2.5c1.1-1.3,2.5-4,4.1-8.1c0.1-0.4,0.7-1.9,1.9-4.5l15.2-36.4h1.5l17.5,41.6l2.4,5.5c0.5,1.2,1.3,2.2,2.2,2.9
				c0.9,0.7,2.3,1.2,4.1,1.3v1.8h-20.6v-1.8c2.5,0,4.2-0.2,5.1-0.6s1.3-1.1,1.3-2.2c0-0.6-0.6-2.3-1.8-5.1L243.3,52.3z M242.7,50.6
				l-9.3-22.3l-9.2,22.3H242.7z"/>
			<path class="st1" d="M281.6,45.9l16-14.4c3.7-3.3,5.6-5.7,5.6-7.1c0-2.1-1.9-3.3-5.6-3.4v-1.8h19.7V21c-1.6,0-3.3,0.4-4.9,1
				c-1.6,0.7-3.1,1.5-4.5,2.6c-1.4,1.1-3.9,3.4-7.6,6.8l-9.5,8.8l19.6,19.8c4.5,4.6,7.5,7.3,9,8.3c1.5,1,3.5,1.4,5.9,1.4v1.8h-27.2
				v-1.8h1c2.9,0,4.8-0.2,5.5-0.7c0.7-0.5,1.1-1.1,1.1-1.8c0-1.1-1.9-3.5-5.6-7.2l-14.8-14.9l-3.7,3.3V58c0,4.1,0.1,6.8,0.3,8.1
				s0.7,2.2,1.6,2.8s2.4,0.9,4.8,0.9h1v1.8h-23.5v-1.8h1.6c2.2,0,3.8-0.3,4.7-0.8s1.4-1.4,1.7-2.6s0.4-4,0.4-8.4V32.3
				c0-4.3-0.1-7.1-0.4-8.3s-0.8-2-1.6-2.4c-0.8-0.4-2.7-0.6-5.6-0.6v-1.8h23.2V21h-1c-2.6,0-4.3,0.2-5.1,0.6
				c-0.8,0.4-1.3,1.2-1.6,2.4s-0.4,3.9-0.4,8.3V45.9z"/>
			<path class="st0" d="M328.2,21v-1.8h24V21H351c-2.6,0-4.3,0.2-5.1,0.6c-0.8,0.4-1.3,1.2-1.6,2.4S344,28,344,32.3V58
				c0,4.1,0.1,6.8,0.3,8.1c0.2,1.3,0.7,2.2,1.5,2.8c0.8,0.6,2.4,0.9,4.8,0.9h1.5v1.8h-24v-1.8h1.5c2.2,0,3.8-0.3,4.7-0.8
				s1.4-1.4,1.6-2.6c0.2-1.2,0.3-4,0.3-8.4V32.3c0-4.2-0.1-6.9-0.3-8.1c-0.2-1.2-0.7-2-1.5-2.5c-0.8-0.5-2.5-0.7-5.2-0.7H328.2z"/>
		</g>
	</g>
	<g>
		<g>
			<g>
				<path class="st1" d="M151.3,109.3h0.4c-0.4,1.1-0.9,1.9-1.5,2.5c-0.7,0.6-1.3,0.9-2,0.9c-0.6,0-1.1-0.2-1.4-0.7
					c-0.4-0.4-0.5-1.1-0.5-1.9c0-1,0.2-2,0.7-3.1s1.2-2.1,2.1-2.9c0.9-0.8,1.7-1.2,2.4-1.2c0.4,0,0.7,0.1,1,0.4
					c0.3,0.3,0.4,0.6,0.4,0.9c0,0.5-0.2,0.8-0.6,0.8c-0.4,0-0.7-0.3-0.7-0.9c0-0.4-0.2-0.7-0.5-0.7c-0.4,0-0.9,0.4-1.4,1.1
					c-0.5,0.8-1,1.8-1.4,3.1c-0.4,1.3-0.6,2.2-0.6,2.9c0,0.4,0.1,0.8,0.3,1s0.5,0.4,0.8,0.4c0.4,0,0.9-0.3,1.4-0.8
					C150.6,110.9,151,110.2,151.3,109.3z"/>
				<path class="st1" d="M158.2,109.5c0-0.9,0.2-1.9,0.6-2.9c0.4-1,1-1.9,1.8-2.5s1.5-1,2.2-1c0.7,0,1.2,0.3,1.6,0.8
					s0.6,1.3,0.6,2.3c0,1.2-0.2,2.2-0.7,3.3s-1.1,1.8-1.8,2.4c-0.7,0.6-1.4,0.8-2.1,0.8c-0.6,0-1.2-0.2-1.6-0.7
					C158.4,111.5,158.2,110.7,158.2,109.5z M159.4,110.8c0,0.4,0.1,0.7,0.3,1s0.5,0.4,0.9,0.4c1,0,1.8-0.9,2.4-2.8
					c0.6-1.9,1-3.3,1-4.3c0-0.5-0.1-0.9-0.3-1.1s-0.5-0.4-0.9-0.4c-0.9,0-1.7,0.9-2.4,2.6C159.7,108,159.4,109.5,159.4,110.8z"/>
				<path class="st1" d="M179.1,110.4h0.6c-0.4,0.8-0.9,1.4-1.4,1.8c-0.5,0.4-0.9,0.6-1.4,0.6c-0.3,0-0.6-0.1-0.9-0.3
					c-0.2-0.2-0.4-0.5-0.4-0.9c0-0.3,0.2-1,0.5-2l1.2-3.4c0.3-0.9,0.5-1.5,0.5-1.8c0-0.2-0.1-0.4-0.2-0.5c-0.1-0.1-0.3-0.2-0.5-0.2
					c-0.6,0-1.3,0.7-2.2,2c-0.9,1.3-1.7,3.1-2.3,5.2l-0.5,1.8h-1.4l2-6.3c0.4-1.2,0.5-1.8,0.5-2c0-0.1,0-0.2-0.1-0.3
					c0-0.1-0.1-0.1-0.2-0.1c-0.4,0-1,0.5-1.6,1.6h-0.5c0.9-1.7,1.8-2.5,2.6-2.5c0.3,0,0.5,0.1,0.7,0.3c0.1,0.2,0.2,0.4,0.2,0.8
					c0,0.6-0.2,1.6-0.7,3c1.3-2.7,2.6-4,3.9-4c0.4,0,0.8,0.1,1.1,0.4c0.3,0.3,0.5,0.7,0.5,1.2c0,0.3-0.2,1-0.5,1.9l-1.2,3.5
					c-0.3,1-0.5,1.5-0.5,1.6c0,0.1,0,0.2,0.1,0.3s0.2,0.1,0.3,0.1c0.3,0,0.5-0.1,0.8-0.4C178.4,111.4,178.7,110.9,179.1,110.4z"/>
				<path class="st1" d="M190.1,110c0,0.7-0.3,1.3-0.8,1.9c-0.5,0.6-1.3,0.9-2.3,0.9c-0.8,0-1.3-0.2-1.7-0.5s-0.6-0.7-0.6-1.1
					c0-0.2,0.1-0.4,0.2-0.5c0.1-0.1,0.3-0.2,0.4-0.2c0.4,0,0.6,0.2,0.6,0.6c0,0.1,0,0.2-0.1,0.4c0,0.1,0,0.1,0,0.2
					c0,0.2,0.1,0.3,0.3,0.5c0.2,0.1,0.5,0.2,0.8,0.2c0.5,0,0.9-0.2,1.4-0.5s0.6-0.7,0.6-1.3c0-0.5-0.3-1.2-0.9-2.3
					c-0.7-1.2-1-2.1-1-2.6c0-0.7,0.3-1.3,0.8-1.8c0.6-0.5,1.2-0.7,1.9-0.7c0.5,0,1,0.1,1.3,0.4c0.4,0.3,0.6,0.6,0.6,0.9
					c0,0.4-0.2,0.6-0.5,0.6c-0.2,0-0.4-0.2-0.5-0.7c-0.1-0.5-0.4-0.7-1-0.7c-0.4,0-0.8,0.1-1.1,0.3c-0.3,0.2-0.5,0.5-0.5,0.9
					c0,0.5,0.2,1.2,0.7,2.1c0.5,0.8,0.8,1.4,0.9,1.8S190.1,109.6,190.1,110z"/>
				<path class="st1" d="M205.1,110.2h0.5c-0.6,1.7-1.5,2.6-2.6,2.6c-0.4,0-0.6-0.1-0.8-0.3c-0.2-0.2-0.3-0.5-0.3-0.9
					c0-0.6,0.2-1.5,0.6-2.7c-1.3,2.6-2.6,3.9-3.8,3.9c-0.5,0-0.8-0.1-1.1-0.4c-0.3-0.3-0.4-0.6-0.4-1.1c0-0.4,0.2-1.1,0.5-2.1l1.4-4
					c0.2-0.6,0.3-0.9,0.3-1.1c0-0.2-0.1-0.3-0.3-0.3c-0.5,0-1,0.6-1.5,1.9h-0.5c0.3-0.8,0.7-1.4,1.2-1.9c0.5-0.5,1-0.7,1.4-0.7
					c0.3,0,0.5,0.1,0.7,0.3c0.2,0.2,0.3,0.5,0.3,0.8c0,0.3-0.1,0.8-0.4,1.6l-1.4,4.1c-0.3,0.8-0.4,1.3-0.4,1.6
					c0,0.2,0.1,0.4,0.2,0.5c0.1,0.1,0.3,0.2,0.5,0.2c0.7,0,1.4-0.7,2.3-2.1c0.9-1.4,1.8-3.4,2.6-6.2l0.2-0.6h1.3l-1.9,6.4
					c-0.3,1-0.5,1.7-0.5,1.9c0,0.2,0,0.3,0.1,0.4s0.2,0.1,0.3,0.1C204,112,204.6,111.4,205.1,110.2z"/>
				<path class="st1" d="M215.3,109.8h0.5c-0.8,2-1.7,3-2.9,3c-0.4,0-0.7-0.1-1-0.4c-0.2-0.3-0.4-0.6-0.4-1c0-0.4,0.2-1.4,0.7-3
					l2.6-8.6c0.2-0.7,0.3-1.1,0.3-1.3c0-0.2,0-0.3-0.1-0.4c-0.1-0.1-0.3-0.1-0.7-0.1h-0.4l0.1-0.5c1.2,0,2.1-0.2,2.7-0.4h0.3
					l-3.6,11.8c-0.1,0.2-0.2,0.5-0.3,1c-0.2,0.6-0.3,1.1-0.3,1.5c0,0.2,0,0.4,0.1,0.5c0.1,0.1,0.2,0.2,0.4,0.2
					c0.3,0,0.6-0.2,0.9-0.5C214.5,111.2,214.9,110.6,215.3,109.8z"/>
				<path class="st1" d="M226.7,103.4l-0.2,0.5h-1.7l-1.5,4.9c-0.5,1.6-0.7,2.5-0.7,2.8c0,0.2,0,0.3,0.1,0.4
					c0.1,0.1,0.2,0.1,0.3,0.1c0.3,0,0.6-0.3,1-0.8c0.4-0.5,0.8-1.1,1.2-1.9h0.5c-0.5,1.1-1,1.9-1.5,2.5s-1.1,0.9-1.6,0.9
					c-0.4,0-0.7-0.1-0.9-0.4c-0.2-0.3-0.3-0.6-0.3-1c0-0.3,0.2-1.3,0.7-2.8l1.4-4.7H222l0.2-0.5h1.5l1-3.4h1.3l-1,3.4H226.7z"/>
				<path class="st1" d="M231.2,109.5c0-0.9,0.2-1.9,0.6-2.9c0.4-1,1-1.9,1.8-2.5s1.5-1,2.2-1c0.7,0,1.2,0.3,1.6,0.8
					s0.6,1.3,0.6,2.3c0,1.2-0.2,2.2-0.7,3.3s-1.1,1.8-1.8,2.4c-0.7,0.6-1.4,0.8-2.1,0.8c-0.6,0-1.2-0.2-1.6-0.7
					C231.4,111.5,231.2,110.7,231.2,109.5z M232.4,110.8c0,0.4,0.1,0.7,0.3,1s0.5,0.4,0.9,0.4c1,0,1.8-0.9,2.4-2.8
					c0.6-1.9,1-3.3,1-4.3c0-0.5-0.1-0.9-0.3-1.1s-0.5-0.4-0.9-0.4c-0.9,0-1.7,0.9-2.4,2.6C232.7,108,232.4,109.5,232.4,110.8z"/>
				<path class="st1" d="M244.3,106.1h-0.5c0.3-0.8,0.7-1.5,1.2-2.1s0.9-0.9,1.4-0.9c0.3,0,0.6,0.1,0.7,0.4c0.2,0.3,0.2,0.6,0.2,1.2
					c0,0.6-0.2,1.6-0.5,2.8c0-0.1,0.2-0.3,0.4-0.8c0.5-1.2,1-2.1,1.4-2.7c0.4-0.5,0.8-0.8,1.2-0.8c0.3,0,0.5,0.1,0.6,0.2
					c0.2,0.2,0.2,0.4,0.2,0.6c0,0.2-0.1,0.4-0.2,0.5c-0.1,0.1-0.3,0.2-0.5,0.2c-0.2,0-0.4-0.1-0.6-0.4c-0.1-0.1-0.2-0.1-0.2-0.1
					c-0.4,0-0.9,0.9-1.7,2.7c-0.8,1.8-1.4,3.5-1.9,5l-0.2,0.8h-1.3l1.8-5.9c0.3-1.1,0.5-1.9,0.5-2.3c0-0.2,0-0.4-0.1-0.5
					c-0.1-0.1-0.1-0.2-0.2-0.2c-0.2,0-0.5,0.3-0.9,0.8C244.7,105.1,244.5,105.6,244.3,106.1z"/>
				<path class="st1" d="M259.2,110h0.5c-0.3,0.7-0.8,1.4-1.4,1.9c-0.6,0.6-1.1,0.8-1.6,0.8c-0.3,0-0.7-0.1-0.9-0.4
					c-0.3-0.2-0.4-0.6-0.4-1.1c0-0.4,0.2-1.1,0.6-2.3l1.3-3.4c0.3-0.8,0.4-1.3,0.4-1.4c0-0.1,0-0.3-0.1-0.3
					c-0.1-0.1-0.2-0.1-0.3-0.1c-0.3,0-0.6,0.2-1,0.7c-0.4,0.4-0.7,0.9-0.8,1.2H255c0.4-0.8,0.9-1.4,1.4-1.9c0.5-0.5,1-0.7,1.5-0.7
					c0.3,0,0.6,0.1,0.9,0.4c0.2,0.2,0.3,0.5,0.3,0.9c0,0.4-0.2,1.1-0.6,2.2l-1.1,2.9c-0.4,1-0.6,1.7-0.6,2c0,0.2,0,0.4,0.1,0.5
					s0.2,0.2,0.4,0.2C257.9,112,258.5,111.3,259.2,110z M257.4,102.2l-0.2-0.2l1.6-2.5c0.4-0.6,0.7-1,0.9-1.1
					c0.2-0.1,0.3-0.2,0.5-0.2c0.2,0,0.3,0.1,0.5,0.2s0.2,0.3,0.2,0.5c0,0.3-0.3,0.7-0.9,1.2L257.4,102.2z"/>
				<path class="st1" d="M272.2,103.2h1.3l-2,6.5c-0.3,0.9-0.4,1.5-0.4,1.7c0,0.1,0,0.3,0.1,0.3c0.1,0.1,0.2,0.1,0.3,0.1
					c0.5,0,1.1-0.6,1.8-1.8h0.5c-0.3,0.7-0.7,1.3-1.2,1.8c-0.5,0.5-1,0.8-1.5,0.8c-0.3,0-0.6-0.1-0.8-0.4c-0.2-0.3-0.3-0.6-0.3-1
					c0-0.3,0.1-0.7,0.2-1.2c-0.3,0.6-0.8,1.1-1.4,1.7s-1.2,0.8-1.8,0.8c-0.5,0-1-0.2-1.3-0.7s-0.6-1-0.6-1.8c0-1,0.3-2.1,0.9-3.2
					c0.6-1.2,1.3-2.1,2.3-2.9s1.7-1.2,2.4-1.2c0.4,0,0.7,0.1,0.9,0.3c0.2,0.2,0.4,0.5,0.4,0.8L272.2,103.2z M266.4,110.7
					c0,0.5,0.1,0.9,0.2,1.1c0.1,0.2,0.4,0.4,0.7,0.4c0.5,0,1.1-0.4,1.8-1.1c0.7-0.7,1.3-1.8,1.8-3.3c0.5-1.5,0.8-2.5,0.8-3
					c0-0.3-0.1-0.6-0.2-0.8s-0.4-0.3-0.7-0.3c-0.9,0-1.8,0.9-2.8,2.7C266.9,108.1,266.4,109.5,266.4,110.7z"/>
			</g>
		</g>
		<g>
			<path class="st1" d="M128.3,99.1c0,0.8-0.3,1.3-1,1.7c-0.6,0.3-1.1,0.7-1.7,0.9c-0.7,0.3-1.3,0.6-2,0.8c-0.7,0.3-1.4,0.5-2.1,0.8
				c-0.5,0.2-0.8,0-1-0.5c-0.3-0.8-0.6-1.6-0.6-2.5c0-0.4,0.1-0.8,0.4-1c1.9-1.6,3.9-3.3,5.8-4.9c0.3-0.3,0.4-0.2,0.6,0.1
				c0.7,1.2,1.3,2.4,1.6,3.8C128.2,98.6,128.3,98.8,128.3,99.1z"/>
			<path class="st1" d="M121.5,106.7c-0.5,0.1-0.6-0.1-0.6-0.5c0-0.5,0-1.1-0.1-1.6c-0.1-0.2-0.1-0.6,0.3-0.7
				c2.2-0.6,4.2-1.5,6.2-2.5c0.5-0.2,0.9-0.5,1.4-0.7c0.3-0.1,0.4-0.1,0.5,0.2c0.1,0.3,0.2,0.7,0.2,1c-0.1,0.6-0.1,1.2,0,1.8
				c0,0.6-0.2,1.2-0.4,1.7c-0.4,1-1,1.3-2.4,1.3c-0.2-0.1-0.4-0.1-0.6-0.1c-1.1,0-2.2,0-3.4,0C122.3,106.6,121.9,106.6,121.5,106.7z
				"/>
			<path class="st1" d="M126.7,111.5c-0.4-0.1-0.9-0.2-1.3-0.3c-1.6-0.5-3.1-1.1-4.7-1.7c-0.3-0.1-0.4-0.3-0.3-0.6
				c0.2-0.5,0.3-0.9,0.4-1.4c0-0.2,0.1-0.3,0.3-0.3c2.4,0.2,4.9,0.2,7.3,0.2c0.5,0,0.6,0.1,0.5,0.6c-0.3,0.9-0.4,1.8-0.8,2.6
				C127.9,111.1,127.5,111.5,126.7,111.5z"/>
			<path class="st1" d="M123.5,115.6c-0.4,0-0.7-0.2-1-0.4c-0.8-0.6-1.6-1.3-2.3-2.1c-0.4-0.4-0.8-0.8-1.1-1.3
				c-0.2-0.2-0.2-0.4,0-0.6c0.4-0.3,0.7-0.7,0.9-1.1c0.1-0.2,0.2-0.2,0.4-0.1c2.1,1,4.3,1.7,6.6,2.4c0.4,0.1,0.5,0.3,0.2,0.6
				c-0.7,0.9-1.6,1.6-2.5,2.2C124.2,115.4,123.9,115.6,123.5,115.6z"/>
			<path class="st1" d="M119.7,118.4c-0.6,0-1-0.3-1.2-0.7c-0.8-1.5-1.5-3.1-2.1-4.8c-0.1-0.2,0-0.3,0.2-0.4
				c0.2-0.1,0.5-0.1,0.6-0.2c0.9-0.7,1.4-0.2,2,0.4c1.2,1.3,2.4,2.7,3.6,4c0.3,0.3,0.2,0.4-0.1,0.6
				C121.7,117.9,120.7,118.2,119.7,118.4z"/>
			<path class="st1" d="M113.9,116c-0.1-0.9-0.1-1.8-0.1-2.7c0-0.2,0.1-0.3,0.3-0.4c0.4,0,0.7-0.1,1.1-0.1c0.4-0.1,0.6,0.1,0.7,0.4
				c0.2,0.5,0.3,1,0.5,1.5c0.4,1.3,0.8,2.6,1.2,3.9c0.1,0.4,0,0.6-0.4,0.6c-0.8,0.1-1.5,0.2-2.3,0c-0.5-0.1-1-0.3-1-0.9
				C114.1,117.6,114.2,116.8,113.9,116z"/>
			<path class="st2" d="M105.4,101.3c0.4,0,0.6,0.1,0.8,0.2c1.2,0.8,2.4,1.6,3.5,2.4c0.5,0.3,0.5,0.5,0.1,1
				c-0.1,0.1-0.1,0.1-0.1,0.2c-0.4,0.8-0.4,0.8-1.3,0.5c-1.6-0.4-3.2-0.9-4.7-1.3c-0.4-0.1-0.4-0.2-0.3-0.6c0.3-0.8,0.7-1.5,1.3-2
				C105,101.5,105.2,101.3,105.4,101.3z"/>
			<path class="st2" d="M113.4,113.4c-0.2,1.8-0.5,3.7-0.7,5.5c0,0.2-0.1,0.3-0.3,0.3c-0.8-0.2-1.7-0.5-2.3-1.1
				c-0.4-0.3-0.5-0.8-0.3-1.3c0.6-1.4,1.2-2.8,1.8-4.2c0.1-0.3,0.2-0.4,0.6-0.3c0.3,0.1,0.6,0.3,0.9,0.4
				C113.3,113,113.4,113.2,113.4,113.4z"/>
			<path class="st2" d="M105.9,115c0-0.4,0.1-0.6,0.3-0.8c1.1-1.1,2.3-2.2,3.4-3.3c0.2-0.2,0.4-0.4,0.6,0.1c0.1,0.3,0.3,0.5,0.6,0.6
				c0.5,0.3,0.3,0.5,0.2,0.9c-0.9,1.6-1.9,3.1-2.8,4.6c-0.1,0.1-0.1,0.3-0.4,0.2c-0.8-0.6-1.4-1.2-1.8-2.1
				C105.9,115.1,105.9,114.9,105.9,115z"/>
			<path class="st2" d="M103.6,111.4c0-0.6,0.2-1,0.7-1.2c1.4-0.6,2.9-1.2,4.4-1.6c0.2-0.1,0.4-0.1,0.4,0.2c0,0.3,0.2,0.6,0.3,0.9
				c0.3,0.5,0.1,0.8-0.3,1.1c-1.1,0.7-2.1,1.5-3.1,2.3c-0.4,0.3-0.8,0.5-1.2,0.8c-0.2,0.1-0.3,0.1-0.3-0.1
				C104,113,103.7,112.1,103.6,111.4z"/>
			<path class="st2" d="M102.8,108c-0.1-0.5,0.1-1,0.2-1.6c0.1-0.6,0.6-0.8,1.4-0.6c0.6,0.1,1.2,0.1,1.8,0.2
				c0.9,0.1,1.7,0.2,2.6,0.3c0.3,0,0.4,0.1,0.3,0.4c-0.1,0.2-0.1,0.5-0.1,0.7c0.1,0.7-0.2,0.8-0.8,0.9c-1.6,0.2-3.2,0.4-4.8,0.6
				c-0.6,0.1-0.7-0.1-0.6-0.6C102.8,108.2,102.8,108.1,102.8,108z"/>
			<path class="st2" d="M107.8,98.9c0.2,0.2,0.4,0,0.7,0c0.7,0,1.2,0.2,1.6,0.8c0.7,1,1.3,2,2,3c0.2,0.3,0.2,0.4-0.2,0.5
				c-0.2,0-0.4,0.1-0.5,0.2c-0.6,0.6-1,0.3-1.4-0.2c-1.2-1-2.3-2-3.5-3c-0.3-0.2-0.3-0.4,0-0.6C106.8,99.3,107.2,99,107.8,98.9z"/>
			<path class="st2" d="M114.3,101.4c0,0.5,0,1,0,1.5c0,0.2-0.1,0.3-0.3,0.2c-0.1,0-0.2-0.1-0.3-0.1c-1,0.1-1.3-0.6-1.6-1.3
				c-0.5-1.1-1.1-2.3-1.8-3.3c-0.2-0.3-0.2-0.4,0.2-0.5c0.9-0.1,1.8-0.1,2.6,0.1c0.6,0.2,1,0.6,1.1,1.3
				C114.3,100,114.3,100.7,114.3,101.4z"/>
			<path class="st3" d="M114.8,99.8c-0.1-0.4-0.1-0.8-0.2-1.2c-0.1-0.3,0.1-0.3,0.3-0.2c0.8,0.2,1.6,0.7,2.1,1.3
				c0.6,0.7,0.6,1.4,0.2,2.2c-0.4,0.9-1,1.6-1.7,2.3c-0.2-0.3-0.4-0.4-0.5-0.7c-0.2-1-0.1-2-0.1-3.1
				C114.9,100.2,115,99.9,114.8,99.8z"/>
			<path class="st3" d="M118.3,100.4c0.4,0.9,0.7,1.7,0.9,2.6c0.1,0.7-0.2,1.2-0.6,1.6c-0.6,0.5-1.3,0.8-2,1.1
				c-0.2,0.1-0.3,0-0.4-0.2c-0.2-0.6-0.3-1.1,0.2-1.6C117.2,102.9,117.7,101.7,118.3,100.4z"/>
			<path class="st3" d="M118,107.4c-0.3,0-0.6-0.1-0.9-0.1c-0.9-0.1-0.9-0.1-0.8-1c0-0.2,0.2-0.3,0.3-0.4c1-0.5,2.1-1,3-1.6
				c0.3-0.2,0.4-0.1,0.4,0.2c0,0.2,0.1,0.5,0.1,0.7C120.2,106.7,119.5,107.4,118,107.4z"/>
			<path class="st3" d="M118.3,110.1c-0.4,0-0.7-0.2-1-0.3c-0.4-0.2-0.8-0.5-1.2-0.8c-0.5-0.4-0.5-0.9,0-1.3c0.1-0.1,0.2-0.1,0.4,0
				c1.1,0.2,2.2,0.2,3.3,0.1c0.3,0,0.4,0,0.3,0.3c-0.2,0.6-0.4,1.2-0.8,1.7C118.9,110,118.7,110.1,118.3,110.1z"/>
			<path class="st3" d="M115.5,112c-0.4,0-0.6-0.1-0.8-0.5c-0.3-0.7-0.3-1.4-0.5-2.1c0-0.2,0.1-0.2,0.2-0.2c0.3,0,0.5-0.4,0.8-0.1
				c0.4,0.4,0.9,0.7,1.2,1.2c0.2,0.3,0.7,0.4,1,0.6c0.2,0.1,0.4,0.3,0,0.5C116.8,111.7,116.2,111.9,115.5,112z"/>
			<path class="st3" d="M111.7,110.8c0.2-0.7,0.5-1.4,0.9-2c0.1-0.1,0.2-0.1,0.2-0.1c0.3,0.3,0.9,0.3,0.9,1c0,0.7,0.2,1.4,0.6,2.1
				c0.1,0.3,0,0.4-0.2,0.3c-0.7-0.1-1.3-0.2-1.9-0.6C111.8,111.4,111.8,111.1,111.7,110.8z"/>
			<path class="st3" d="M111.1,110.7c-0.4-0.5-0.7-0.9-0.9-1.4c-0.2-0.7-0.1-1.1,0.5-1.5c0.1-0.1,0.2-0.2,0.3-0.2
				c0.3-0.1,0.7-0.4,1.1-0.3c0.1,0,0.1,1.4,0,1.5C111.8,109.3,111.5,110,111.1,110.7z"/>
			<path class="st3" d="M111.7,105.4c0.1,0,0.2,0,0.3,0c0.2,0.1,0.6,0,0.6,0.4c-0.1,0.3,0,0.9-0.6,0.9c-0.5,0.1-1,0.2-1.5,0.5
				c-0.1,0.1-0.3,0.2-0.4,0.1c-0.2-0.1-0.1-0.3-0.1-0.4C110,105.9,110.7,105.4,111.7,105.4z"/>
			<path class="st3" d="M113.9,104c1.3,0,2,1.1,1.4,2.2c-0.1,0.1-0.1,0.4-0.3,0.3c-0.3-0.1-0.7-0.1-0.7-0.5
				C114.3,105.3,114.2,104.6,113.9,104z"/>
			<path class="st3" d="M111,104.7c0.8-1.1,2-1.1,2.7-0.1c0.1,0.1,0.3,0.3,0.1,0.5c-0.2,0.1-0.4,0.5-0.8,0.3
				C112.3,105.1,111.7,104.8,111,104.7z"/>
			<path class="st3" d="M115.7,106.5c0.3,1.1-0.3,1.8-1.3,1.7c-0.2,0-0.4,0-0.4-0.3c0-0.2-0.1-0.5,0.2-0.6
				C114.8,107.2,115.2,106.9,115.7,106.5z"/>
			<path class="st3" d="M113.3,108.2c-0.7-0.6-0.8-1.3-0.1-1.8c0.1-0.1,0.3-0.3,0.5-0.1c0.1,0.2,0.4,0.3,0.2,0.6
				C113.5,107.3,113.4,107.7,113.3,108.2z"/>
			<path class="st1" d="M121.5,106.7c0.4-0.2,0.8-0.1,1.2-0.1c1.1,0,2.2,0,3.4,0c0.2,0,0.4,0,0.6,0.1
				C125,106.8,123.2,106.8,121.5,106.7z"/>
			<path class="st3" d="M114.8,99.8c0.2,0.2,0.1,0.4,0.1,0.6c0,1-0.1,2.1,0.1,3.1c-0.2-0.1-0.2-0.3-0.2-0.5
				C114.8,101.9,114.8,100.9,114.8,99.8z"/>
			<path class="st4" d="M113.9,116c0.3,0.8,0.2,1.7,0.1,2.5C113.9,117.6,113.9,116.8,113.9,116z"/>
			<path class="st4" d="M129.4,103.7c-0.1-0.6-0.1-1.2,0-1.8C129.5,102.5,129.5,103.1,129.4,103.7z"/>
		</g>
	</g>
</g>
</svg>
